<svg width="31" height="31" viewBox="0 0 31 31" fill="none" xmlns="http://www.w3.org/2000/svg">
<path d="M20.4173 14.1947H18.5093L21.1156 9.68033C21.3151 9.33471 21.3692 8.92399 21.2659 8.5385C21.1626 8.15302 20.9104 7.82435 20.5648 7.62479L16.6554 5.36762C16.3098 5.16808 15.899 5.114 15.5135 5.21729C15.1281 5.32057 14.7994 5.57276 14.5998 5.91837L10.8379 12.4341C10.6787 12.7095 10.6109 13.0282 10.6441 13.3445C10.6774 13.6608 10.81 13.9584 11.023 14.1947H9.88384C9.68429 14.1947 9.49292 14.274 9.35182 14.4151C9.21072 14.5562 9.13145 14.7475 9.13145 14.9471C9.13145 15.1466 9.21072 15.338 9.35182 15.4791C9.49292 15.6202 9.68429 15.6995 9.88384 15.6995H20.4173C20.6169 15.6995 20.8083 15.6202 20.9494 15.4791C21.0905 15.338 21.1697 15.1466 21.1697 14.9471C21.1697 14.7475 21.0905 14.5562 20.9494 14.4151C20.8083 14.274 20.6169 14.1947 20.4173 14.1947ZM15.903 6.67076L19.8124 8.92794L16.7727 14.1947H13.8866L12.141 13.1865L15.903 6.67076ZM21.9778 11.1851L21.1095 12.6899H21.9221L25.3079 17.2043H4.99329L8.37905 12.6899H8.99C9.02009 12.6026 9.05922 12.5174 9.10737 12.4341L9.82967 11.1851H8.37905C8.14544 11.1851 7.91504 11.2395 7.70609 11.344C7.49715 11.4485 7.31539 11.6001 7.17522 11.787L3.41326 16.8025C3.21791 17.063 3.1123 17.3798 3.1123 17.7053V24.7282C3.1123 25.1273 3.27084 25.51 3.55305 25.7922C3.83525 26.0744 4.218 26.233 4.61709 26.233H25.6841C26.0832 26.233 26.4659 26.0744 26.7481 25.7922C27.0303 25.51 27.1889 25.1273 27.1889 24.7282V17.7053C27.1889 17.3798 27.0833 17.063 26.8879 16.8025L23.1259 11.787C22.9915 11.6075 22.8187 11.4602 22.62 11.3561C22.4214 11.2519 22.2019 11.1935 21.9778 11.1851Z" fill="#285D2D"/>
</svg>
